<svg width="197" height="130" viewBox="0 0 197 130" fill="none" xmlns="http://www.w3.org/2000/svg">
<rect width="197" height="130" rx="9" fill="#2F2B61"/>
<ellipse cx="61.5" cy="82.5" rx="55.5" ry="36.5" fill="#FCAE18"/>
<ellipse cx="60.5" cy="85.5" rx="55.5" ry="22.5" fill="#8A2900"/>
<ellipse cx="58" cy="91.5" rx="24" ry="11.5" fill="#E1F123"/>
<ellipse cx="41.5" cy="74.5" rx="36.5" ry="19.5" fill="#EC2216"/>
<ellipse cx="82.5" cy="74.5" rx="36.5" ry="19.5" fill="#EC2216"/>
<ellipse cx="79.5" cy="65.5" rx="36.5" ry="19.5" fill="#E05D55"/>
<ellipse cx="79.5" cy="65.5" rx="36.5" ry="19.5" fill="#E05D55"/>
<ellipse cx="79.5" cy="65.5" rx="36.5" ry="19.5" fill="#E05D55"/>
<ellipse cx="79.5" cy="65.5" rx="36.5" ry="19.5" fill="#E05D55"/>
<ellipse cx="42.5" cy="62.5" rx="36.5" ry="19.5" fill="#E05D55"/>
<ellipse cx="42.5" cy="62.5" rx="36.5" ry="19.5" fill="#E05D55"/>
<ellipse cx="42.5" cy="62.5" rx="36.5" ry="19.5" fill="#E05D55"/>
<ellipse cx="42.5" cy="62.5" rx="36.5" ry="19.5" fill="#E05D55"/>
<ellipse cx="61.5" cy="46" rx="55.5" ry="39" fill="#F2A817"/>
<rect x="129" y="28" width="52" height="52" rx="4" fill="#6612B9"/>
<path d="M135.621 50.168L136.922 37.4062H150.035V40.4121H139.682L138.908 47.3906C140.162 46.6523 141.586 46.2832 143.18 46.2832C145.512 46.2832 147.363 47.0566 148.734 48.6035C150.105 50.1387 150.791 52.2188 150.791 54.8438C150.791 57.4805 150.076 59.5605 148.646 61.084C147.229 62.5957 145.242 63.3516 142.688 63.3516C140.426 63.3516 138.58 62.7246 137.15 61.4707C135.721 60.2168 134.906 58.4824 134.707 56.2676H137.783C137.982 57.7324 138.504 58.8398 139.348 59.5898C140.191 60.3281 141.305 60.6973 142.688 60.6973C144.199 60.6973 145.383 60.1816 146.238 59.1504C147.105 58.1191 147.539 56.6953 147.539 54.8789C147.539 53.168 147.07 51.7969 146.133 50.7656C145.207 49.7227 143.971 49.2012 142.424 49.2012C141.006 49.2012 139.893 49.5117 139.084 50.1328L138.223 50.8359L135.621 50.168ZM167.262 56.4082C167.262 55.3301 166.881 54.4219 166.119 53.6836C165.369 52.9453 164.098 52.2773 162.305 51.6797C159.809 50.918 157.986 49.9277 156.838 48.709C155.701 47.4785 155.133 45.9199 155.133 44.0332C155.133 42.1113 155.689 40.5352 156.803 39.3047C157.928 38.0742 159.469 37.3418 161.426 37.1074V33.2578H164.045V37.125C166.014 37.3945 167.543 38.2207 168.633 39.6035C169.734 40.9863 170.285 42.8789 170.285 45.2812H167.051C167.051 43.6289 166.658 42.3164 165.873 41.3438C165.088 40.3711 164.027 39.8848 162.691 39.8848C161.297 39.8848 160.23 40.248 159.492 40.9746C158.754 41.6895 158.385 42.6914 158.385 43.9805C158.385 45.1758 158.771 46.1309 159.545 46.8457C160.33 47.5488 161.613 48.1934 163.395 48.7793C165.188 49.3535 166.582 49.9922 167.578 50.6953C168.586 51.3867 169.324 52.1953 169.793 53.1211C170.273 54.0469 170.514 55.1309 170.514 56.373C170.514 58.3535 169.916 59.9473 168.721 61.1543C167.537 62.3613 165.873 63.0762 163.729 63.2988V66.6562H161.127V63.2988C158.947 63.0996 157.236 62.3262 155.994 60.9785C154.764 59.6191 154.148 57.7793 154.148 55.459H157.4C157.4 57.0879 157.828 58.3418 158.684 59.2207C159.539 60.0996 160.752 60.5391 162.322 60.5391C163.857 60.5391 165.064 60.1699 165.943 59.4316C166.822 58.6934 167.262 57.6855 167.262 56.4082Z" fill="white"/>
</svg>
