<svg width="71" height="74" viewBox="0 0 71 74" fill="none" xmlns="http://www.w3.org/2000/svg">
<ellipse cx="35.5" cy="37" rx="35.5" ry="37" fill="#807171" fill-opacity="0.28"/>
<path d="M26 28.0478L22.8787 20.4569L20 14.0478" stroke="#E0E416" stroke-width="3"/>
<path d="M19 28.0478L15.6238 20.5661L13 14.0478" stroke="#E0E416" stroke-width="3"/>
<path d="M28.1215 27.5874L29.0742 19.4347L30.1766 12.4951" stroke="#E0E416" stroke-width="3"/>
<path d="M33.1731 28.1158L34.1073 19.9606L35.2283 13.0236" stroke="#E0E416" stroke-width="3"/>
<path d="M27.2125 27.8794L24.8737 20.0112L23.1844 13.1902" stroke="#E0E416" stroke-width="3"/>
<path d="M21.1967 27.6893L18.8578 19.821L17.1686 13" stroke="#E0E416" stroke-width="3"/>
<path d="M14.1967 29.6893L11.8578 21.821L10.1686 15" stroke="#E0E416" stroke-width="3"/>
<path d="M19.1967 29.6893L16.8578 21.821L15.1686 15" stroke="#E0E416" stroke-width="3"/>
<path d="M41.1967 29.6893L38.8578 21.821L37.1686 15" stroke="#E0E416" stroke-width="3"/>
<path d="M45.1967 29.6893L42.8578 21.821L41.1686 15" stroke="#E0E416" stroke-width="3"/>
<path d="M48.6138 28.8379L50.1346 20.7715L51.7537 13.9336" stroke="#E0E416" stroke-width="3"/>
<path d="M44.171 28.9404L45.6918 20.874L47.311 14.036" stroke="#E0E416" stroke-width="3"/>
<path d="M53.171 28.9404L54.6918 20.874L56.311 14.036" stroke="#E0E416" stroke-width="3"/>
<path d="M58.171 27.9404L59.6918 19.874L61.311 13.036" stroke="#E0E416" stroke-width="3"/>
<path d="M38.5206 28.0372L37.5082 19.8913L36.9642 12.8854" stroke="#E0E416" stroke-width="3"/>
<path d="M32.033 28.0993L31.9983 18.2482L30.1738 10" stroke="#E0E416" stroke-width="3"/>
<path d="M40.5437 27.8202L36.8245 18.3475L38.6845 9.72085" stroke="#E0E416" stroke-width="3"/>
<path d="M45.5767 27.0993L41.8574 17.6267L43.7175 9" stroke="#E0E416" stroke-width="3"/>
<path d="M28.5767 26.0993L24.8574 16.6267L26.7175 8" stroke="#E0E416" stroke-width="3"/>
<path d="M41.1967 29.6893L38.8578 21.821L37.1686 15" stroke="#E0E416" stroke-width="3"/>
<path d="M10.6775 28.2455C10.3468 26.9055 11.4407 25.6412 12.8144 25.7759L35.2758 27.978C35.4248 27.9926 35.575 27.9905 35.7235 27.9715L58.2263 25.1069C59.6362 24.9274 60.7781 26.2345 60.411 27.6075L51.159 62.2093C50.8889 63.2195 49.8861 63.8511 48.8583 63.6584L35.0587 61.071C34.8087 61.0241 34.552 61.0253 34.3024 61.0747L21.3723 63.63C20.3244 63.8371 19.2987 63.1841 19.0428 62.1471L10.6775 28.2455Z" fill="#D51313"/>
</svg>
