<svg width="71" height="74" viewBox="0 0 71 74" fill="none" xmlns="http://www.w3.org/2000/svg">
<ellipse cx="35.5" cy="37" rx="35.5" ry="37" fill="#807171" fill-opacity="0.28"/>
<ellipse cx="34.5" cy="43.5039" rx="30.5" ry="18.5" fill="white"/>
<path d="M57.5 42.5077C57.5 52.4488 51.9535 53.5077 45.05 53.5077C38.1464 53.5077 26 45.5077 26 33.0077C26 23.0666 35.0964 31.0077 42 31.0077C48.9036 31.0077 57.5 32.5666 57.5 42.5077Z" fill="#A63E3E"/>
<path d="M57.5 42.5077C57.5 52.4488 51.9535 53.5077 45.05 53.5077C38.1464 53.5077 26 45.5077 26 33.0077C26 23.0666 35.0964 31.0077 42 31.0077C48.9036 31.0077 57.5 32.5666 57.5 42.5077Z" fill="#A63E3E"/>
<path d="M57.5566 37.5039C57.5566 47.445 52.0102 48.5039 45.1066 48.5039C38.203 48.5039 26.0566 40.5039 26.0566 28.0039C26.0566 18.0627 35.1531 26.0039 42.0566 26.0039C48.9602 26.0039 57.5566 27.5627 57.5566 37.5039Z" fill="#EB4848"/>
<path d="M57.5566 37.5039C57.5566 47.445 52.0102 48.5039 45.1066 48.5039C38.203 48.5039 26.0566 40.5039 26.0566 28.0039C26.0566 18.0627 35.1531 26.0039 42.0566 26.0039C48.9602 26.0039 57.5566 27.5627 57.5566 37.5039Z" fill="#EB4848"/>
</svg>
