<svg width="71" height="74" viewBox="0 0 71 74" fill="none" xmlns="http://www.w3.org/2000/svg">
<ellipse cx="35.5" cy="37" rx="35.5" ry="37" fill="#807171" fill-opacity="0.28"/>
<path d="M67 49C67 57.8366 53.7924 62 37.5 62C21.2076 62 8 57.8366 8 49C8 40.1634 21.2076 33 37.5 33C53.7924 33 67 40.1634 67 49Z" fill="#301414"/>
<path d="M67 49C67 57.8366 53.7924 62 37.5 62C21.2076 62 8 57.8366 8 49C8 40.1634 21.2076 33 37.5 33C53.7924 33 67 40.1634 67 49Z" fill="#301414"/>
<path d="M67 49C67 57.8366 53.7924 62 37.5 62C21.2076 62 8 57.8366 8 49C8 40.1634 21.2076 33 37.5 33C53.7924 33 67 40.1634 67 49Z" fill="#2B1500"/>
<ellipse cx="37.5" cy="25" rx="29.5" ry="16" fill="#301414"/>
<ellipse cx="37.5" cy="25" rx="29.5" ry="16" fill="#301414"/>
<ellipse cx="37.5" cy="25" rx="29.5" ry="16" fill="#491808"/>
<path d="M8 26.5L9.5 30.5L14 34L20.8831 36.5L30.5 38.5H39V62H29.3377L20.8831 60.5238L14 57.5L8 52V26.5Z" fill="#7C3C00"/>
<path d="M54 37.1852L60.5 34.1235L64.5 32.2099L67 24.5V51.3457L64.5 54.4074L60.5 56.7037L54 59V37.1852Z" fill="#7C3C00"/>
<path d="M39.5 34L54 37V60L39.5 53V34Z" fill="#532800"/>
</svg>
