<svg width="71" height="74" viewBox="0 0 71 74" fill="none" xmlns="http://www.w3.org/2000/svg">
<ellipse cx="35.5" cy="37" rx="35.5" ry="37" fill="#807171" fill-opacity="0.28"/>
<path d="M62.1562 34.5C67.2129 57 57.1077 59.5 49.0996 59.5C41.0914 59.5 32.6562 57 35.5996 37.5C42.1562 22 45.9003 18 47.6562 18C52.7129 18 55.1562 22 62.1562 34.5Z" fill="#F9BD22"/>
<path d="M62.1562 34.5C67.2129 57 57.1077 59.5 49.0996 59.5C41.0914 59.5 32.6562 57 35.5996 37.5C42.1562 22 45.9003 18 47.6562 18C52.7129 18 55.1562 22 62.1562 34.5Z" fill="#F9BD22"/>
<path d="M37.1562 36.5C42.2129 59 32.1077 61.5 24.0996 61.5C16.0914 61.5 7.6562 59 10.5996 39.5C17.1562 24 20.9003 20 22.6562 20C27.7129 20 30.1562 24 37.1562 36.5Z" fill="#F9BD22"/>
<path d="M37.1562 36.5C42.2129 59 32.1077 61.5 24.0996 61.5C16.0914 61.5 7.6562 59 10.5996 39.5C17.1562 24 20.9003 20 22.6562 20C27.7129 20 30.1562 24 37.1562 36.5Z" fill="#F9BD22"/>
</svg>
