<svg width="71" height="74" viewBox="0 0 71 74" fill="none" xmlns="http://www.w3.org/2000/svg">
<ellipse cx="35.5" cy="37" rx="35.5" ry="37" fill="#807171" fill-opacity="0.28"/>
<ellipse cx="35.5" cy="41" rx="31.5" ry="18" fill="white"/>
<path d="M43.5 24.5L40.2225 25.5213C32.2 28.0213 25.536 33.671 21.757 41.1763L17.6986 49.2365" stroke="#EFB45C" stroke-width="3"/>
<path d="M18.9999 30.1821L32.6662 30.1821C40.4863 30.1821 48.0175 33.1376 53.7504 38.4563L60.9999 45.1821" stroke="#EFB45C" stroke-width="3"/>
<path d="M55.5268 49.4747L42.2862 46.0904C34.7097 44.1538 28.145 39.4253 23.9079 32.8526L18.5497 24.5409" stroke="#EFB45C" stroke-width="3"/>
<path d="M62.2421 44.0493L48.705 42.1744C40.9588 41.1015 33.9044 37.1407 28.9554 31.0858L22.6971 23.429" stroke="#EFB45C" stroke-width="3"/>
<path d="M55.0642 27.2297L45.8912 37.36C40.6422 43.1567 33.3963 46.7555 25.6058 47.435L15.7541 48.2943" stroke="#EFB45C" stroke-width="3"/>
<path d="M56.2452 38.1434L43.8713 43.9445C36.7907 47.2639 28.7171 47.7847 21.2687 45.4025L11.8497 42.3899" stroke="#EFB45C" stroke-width="3"/>
<path d="M60.4603 33.9209L47.8882 39.279C40.6942 42.345 32.6072 42.5788 25.2481 39.9336L15.9419 36.5885" stroke="#EFB45C" stroke-width="3"/>
<path d="M59.9911 30.272L55.8245 35.0725C47.482 44.6841 34.1124 48.2202 22.109 43.9898L13.7358 41.0388" stroke="#EFB45C" stroke-width="3"/>
<path d="M49 22L43.7845 31.1072C39.4717 38.638 32.1998 44.0162 23.7362 45.9346L16.8358 47.4986" stroke="#EFB45C" stroke-width="3"/>
<path d="M9.55457 39.5279L21.3946 32.7028C28.1696 28.7973 36.1704 27.5967 43.7933 29.3416L53.4331 31.5481" stroke="#EFB45C" stroke-width="3"/>
</svg>
