<svg width="71" height="74" viewBox="0 0 71 74" fill="none" xmlns="http://www.w3.org/2000/svg">
<ellipse cx="35.5" cy="37" rx="35.5" ry="37" fill="#807171" fill-opacity="0.28"/>
<path d="M9.47055 18.4231C9.21914 16.0599 11.0715 14 13.4481 14H62.3601C64.8039 14 66.6765 16.1721 66.3165 18.5892L63.5878 36.9108C63.5296 37.3014 63.5296 37.6986 63.5878 38.0892L66.3165 56.4108C66.6765 58.8279 64.8039 61 62.3601 61H13.4481C11.0715 61 9.21914 58.9401 9.47055 56.5769L11.455 37.9231C11.4849 37.6418 11.4849 37.3582 11.455 37.0769L9.47055 18.4231Z" fill="#EFD239"/>
<path fill-rule="evenodd" clip-rule="evenodd" d="M66.6583 16.2946C66.8383 15.0861 65.902 14 64.6801 14H11.2241C10.0358 14 9.10961 15.03 9.23532 16.2116L11.4775 37.2884C11.4925 37.4291 11.4925 37.5709 11.4775 37.7116L9.23532 58.7884C9.10961 59.97 10.0358 61 11.2241 61H64.6801C65.902 61 66.8383 59.9139 66.6583 58.7054L63.5439 37.7946C63.5148 37.5993 63.5148 37.4007 63.5439 37.2054L66.6583 16.2946ZM61.6611 20.2925C61.8397 19.0846 60.9037 18 59.6826 18H15.2224C14.0347 18 13.1087 19.0289 13.2334 20.21L15.0899 37.79C15.1047 37.9296 15.1047 38.0704 15.0899 38.21L13.2334 55.79C13.1087 56.9711 14.0347 58 15.2224 58H59.6826C60.9037 58 61.8397 56.9154 61.6611 55.7075L59.0864 38.2925C59.0577 38.0986 59.0577 37.9014 59.0864 37.7075L61.6611 20.2925Z" fill="#E19A2E"/>
</svg>
