<svg width="71" height="74" viewBox="0 0 71 74" fill="none" xmlns="http://www.w3.org/2000/svg">
<ellipse cx="35.5" cy="37" rx="35.5" ry="37" fill="#807171" fill-opacity="0.28"/>
<ellipse cx="36.5" cy="38.5" rx="27.5" ry="21.5" fill="#F5B40A"/>
<path fill-rule="evenodd" clip-rule="evenodd" d="M36.5 59C51.6878 59 64 49.3741 64 37.5C64 25.6259 51.6878 16 36.5 16C21.3122 16 9 25.6259 9 37.5C9 49.3741 21.3122 59 36.5 59ZM36.5 53C48.3741 53 58 45.6127 58 36.5C58 27.3873 48.3741 20 36.5 20C24.6259 20 15 27.3873 15 36.5C15 45.6127 24.6259 53 36.5 53Z" fill="#CC9D23"/>
<ellipse cx="30" cy="25.5" rx="3" ry="2.5" fill="#CF1414"/>
<ellipse cx="31" cy="37.5" rx="3" ry="2.5" fill="#47CE08"/>
<ellipse cx="31" cy="37.5" rx="3" ry="2.5" fill="#47CE08"/>
<ellipse cx="40" cy="32.5" rx="3" ry="2.5" fill="#47CE08"/>
<ellipse cx="40" cy="32.5" rx="3" ry="2.5" fill="#47CE08"/>
<ellipse cx="26" cy="43.5" rx="3" ry="2.5" fill="#CF1414"/>
<ellipse cx="21" cy="33.5" rx="3" ry="2.5" fill="#CF1414"/>
<ellipse cx="46" cy="26.5" rx="3" ry="2.5" fill="#CF1414"/>
<ellipse cx="51" cy="39.5" rx="3" ry="2.5" fill="#CF1414"/>
<ellipse cx="39" cy="47.5" rx="3" ry="2.5" fill="#CF1414"/>
</svg>
