<svg width="71" height="74" viewBox="0 0 71 74" fill="none" xmlns="http://www.w3.org/2000/svg">
<ellipse cx="35.5" cy="37" rx="35.5" ry="37" fill="#807171" fill-opacity="0.28"/>
<path d="M13 30.5C13 27.7386 15.2386 25.5 18 25.5H36.5H54C56.7614 25.5 59 27.7386 59 30.5V48.6556C59 51.5479 56.5533 53.8369 53.6674 53.6445L36.5 52.5L18.3185 53.6605C15.4376 53.8444 13 51.5574 13 48.6707V30.5Z" fill="#F19947"/>
<path d="M22.4984 28.5L17.5 40.4601L22.4983 50" stroke="#F9F9F9" stroke-opacity="0.67"/>
<path d="M28.725 28.3213L23.7266 40.2814L28.7249 49.8213" stroke="#F9F9F9" stroke-opacity="0.67"/>
<path d="M34.725 29.3213L29.7266 41.2814L34.7249 50.8213" stroke="#F9F9F9" stroke-opacity="0.67"/>
<path d="M41.725 29.3213L36.7266 41.2814L41.7249 50.8213" stroke="#F9F9F9" stroke-opacity="0.67"/>
<path d="M48.725 30.3213L43.7266 42.2814L48.7249 51.8213" stroke="#F9F9F9" stroke-opacity="0.67"/>
<path d="M54.725 30.3213L49.7266 42.2814L54.7249 51.8213" stroke="#F9F9F9" stroke-opacity="0.67"/>
</svg>
