<svg width="81" height="18" viewBox="0 0 81 18" fill="none" xmlns="http://www.w3.org/2000/svg">
<rect width="81" height="18" rx="3" fill="#322F2F"/>
<path d="M6.91553 13H5.9165V6.37744L3.91309 7.11328V6.21094L6.75977 5.14209H6.91553V13ZM13.0923 13H12.0933V6.37744L10.0898 7.11328V6.21094L12.9365 5.14209H13.0923V13ZM22.9268 10.3735H24.0117V11.1846H22.9268V13H21.9277V11.1846H18.3667V10.5991L21.8687 5.17969H22.9268V10.3735ZM19.4946 10.3735H21.9277V6.53857L21.8096 6.75342L19.4946 10.3735ZM25.3652 9.0791L25.7627 5.17969H29.7695V6.09814H26.606L26.3696 8.23047C26.7528 8.00488 27.1878 7.89209 27.6748 7.89209C28.3874 7.89209 28.9531 8.12842 29.3721 8.60107C29.791 9.07015 30.0005 9.70573 30.0005 10.5078C30.0005 11.3135 29.7821 11.9491 29.3452 12.4146C28.9119 12.8765 28.305 13.1074 27.5244 13.1074C26.8333 13.1074 26.2694 12.9159 25.8325 12.5327C25.3957 12.1496 25.1468 11.6196 25.0859 10.9429H26.0259C26.0868 11.3905 26.2461 11.7288 26.5039 11.958C26.7617 12.1836 27.1019 12.2964 27.5244 12.2964C27.9863 12.2964 28.348 12.1388 28.6094 11.8237C28.8743 11.5086 29.0068 11.0736 29.0068 10.5186C29.0068 9.99577 28.8636 9.57682 28.5771 9.26172C28.2943 8.94303 27.9165 8.78369 27.4438 8.78369C27.0106 8.78369 26.6704 8.87858 26.4233 9.06836L26.1602 9.2832L25.3652 9.0791ZM32.5303 8.60645H33.2769C33.7459 8.59928 34.1147 8.47575 34.3833 8.23584C34.6519 7.99593 34.7861 7.67188 34.7861 7.26367C34.7861 6.34701 34.3296 5.88867 33.4165 5.88867C32.9868 5.88867 32.6431 6.01221 32.3853 6.25928C32.131 6.50277 32.0039 6.82682 32.0039 7.23145H31.0103C31.0103 6.61198 31.2358 6.09814 31.687 5.68994C32.1418 5.27816 32.7183 5.07227 33.4165 5.07227C34.1541 5.07227 34.7324 5.26742 35.1514 5.65771C35.5703 6.04801 35.7798 6.59049 35.7798 7.28516C35.7798 7.62533 35.6688 7.95475 35.4468 8.27344C35.2284 8.59212 34.9294 8.83024 34.5498 8.98779C34.9795 9.12386 35.3107 9.34945 35.5435 9.66455C35.7798 9.97965 35.8979 10.3646 35.8979 10.8193C35.8979 11.5212 35.6688 12.078 35.2104 12.4897C34.7521 12.9015 34.1559 13.1074 33.4219 13.1074C32.6878 13.1074 32.0898 12.9087 31.6279 12.5112C31.1696 12.1138 30.9404 11.5892 30.9404 10.9375H31.9395C31.9395 11.3493 32.0737 11.6787 32.3423 11.9258C32.6108 12.1729 32.9707 12.2964 33.4219 12.2964C33.9017 12.2964 34.2687 12.1711 34.5229 11.9204C34.7772 11.6698 34.9043 11.3099 34.9043 10.8408C34.9043 10.3861 34.7646 10.0369 34.4854 9.79346C34.2061 9.54997 33.8032 9.42464 33.2769 9.41748H32.5303V8.60645ZM41.457 10.3735H42.542V11.1846H41.457V13H40.458V11.1846H36.897V10.5991L40.3989 5.17969H41.457V10.3735ZM38.0249 10.3735H40.458V6.53857L40.3398 6.75342L38.0249 10.3735ZM45.6089 10.0835H42.9878V9.27246H45.6089V10.0835ZM51.603 13H46.479V12.2856L49.186 9.27783C49.5871 8.82308 49.8628 8.45426 50.0132 8.17139C50.1672 7.88493 50.2441 7.58952 50.2441 7.28516C50.2441 6.87695 50.1206 6.54215 49.8735 6.28076C49.6265 6.01937 49.297 5.88867 48.8853 5.88867C48.3911 5.88867 48.0062 6.03011 47.7305 6.31299C47.4583 6.59229 47.3223 6.98258 47.3223 7.48389H46.3286C46.3286 6.76416 46.5596 6.18229 47.0215 5.73828C47.487 5.29427 48.1082 5.07227 48.8853 5.07227C49.6121 5.07227 50.1868 5.26383 50.6094 5.64697C51.0319 6.02653 51.2432 6.5332 51.2432 7.16699C51.2432 7.93685 50.7526 8.85352 49.7715 9.91699L47.6768 12.189H51.603V13ZM56.8506 10.3735H57.9355V11.1846H56.8506V13H55.8516V11.1846H52.2905V10.5991L55.7925 5.17969H56.8506V10.3735ZM53.4185 10.3735H55.8516V6.53857L55.7334 6.75342L53.4185 10.3735ZM59.2891 9.0791L59.6865 5.17969H63.6934V6.09814H60.5298L60.2935 8.23047C60.6766 8.00488 61.1117 7.89209 61.5986 7.89209C62.3112 7.89209 62.877 8.12842 63.2959 8.60107C63.7148 9.07015 63.9243 9.70573 63.9243 10.5078C63.9243 11.3135 63.7059 11.9491 63.269 12.4146C62.8358 12.8765 62.2288 13.1074 61.4482 13.1074C60.7572 13.1074 60.1932 12.9159 59.7563 12.5327C59.3195 12.1496 59.0706 11.6196 59.0098 10.9429H59.9497C60.0106 11.3905 60.1699 11.7288 60.4277 11.958C60.6855 12.1836 61.0257 12.2964 61.4482 12.2964C61.9102 12.2964 62.2718 12.1388 62.5332 11.8237C62.7982 11.5086 62.9307 11.0736 62.9307 10.5186C62.9307 9.99577 62.7874 9.57682 62.501 9.26172C62.2181 8.94303 61.8403 8.78369 61.3677 8.78369C60.9344 8.78369 60.5942 8.87858 60.3472 9.06836L60.084 9.2832L59.2891 9.0791Z" fill="#B7B7B7"/>
<path d="M73.4047 13.1152L72 8.5L72.8417 4.53136" stroke="black" stroke-width="2"/>
<ellipse cx="73.9551" cy="4.63307" rx="2" ry="2.5" transform="rotate(31.785 73.9551 4.63307)" fill="black"/>
<ellipse cx="74.2691" cy="12.5719" rx="2.44855" ry="1.67624" transform="rotate(31.785 74.2691 12.5719)" fill="black"/>
</svg>
