<svg width="45" height="26" viewBox="0 0 45 26" fill="none" xmlns="http://www.w3.org/2000/svg">
<rect width="45" height="26" rx="6" fill="#E72F2F"/>
<path d="M16.7471 13.7822H12.7412V18H11.0117V8.04688H17.335V9.44141H12.7412V12.4014H16.7471V13.7822ZM17.8769 14.2334C17.8769 13.5088 18.0205 12.8571 18.3076 12.2783C18.5947 11.695 18.998 11.2484 19.5175 10.9385C20.0371 10.624 20.6341 10.4668 21.3086 10.4668C22.3066 10.4668 23.1155 10.7881 23.7353 11.4307C24.3597 12.0732 24.6969 12.9255 24.747 13.9873L24.7539 14.377C24.7539 15.1061 24.6126 15.7578 24.33 16.332C24.052 16.9062 23.651 17.3506 23.1269 17.665C22.6074 17.9795 22.0058 18.1367 21.3222 18.1367C20.2786 18.1367 19.4423 17.7904 18.8134 17.0977C18.1891 16.4004 17.8769 15.473 17.8769 14.3154V14.2334ZM19.538 14.377C19.538 15.138 19.6953 15.735 20.0097 16.168C20.3242 16.5964 20.7617 16.8105 21.3222 16.8105C21.8828 16.8105 22.318 16.5918 22.6279 16.1543C22.9423 15.7168 23.0996 15.0765 23.0996 14.2334C23.0996 13.486 22.9378 12.8936 22.6142 12.4561C22.2952 12.0186 21.86 11.7998 21.3086 11.7998C20.7662 11.7998 20.3356 12.0163 20.0166 12.4492C19.6976 12.8776 19.538 13.5202 19.538 14.377ZM25.6376 14.2334C25.6376 13.5088 25.7812 12.8571 26.0683 12.2783C26.3554 11.695 26.7587 11.2484 27.2782 10.9385C27.7978 10.624 28.3948 10.4668 29.0693 10.4668C30.0673 10.4668 30.8762 10.7881 31.496 11.4307C32.1204 12.0732 32.4576 12.9255 32.5077 13.9873L32.5146 14.377C32.5146 15.1061 32.3733 15.7578 32.0907 16.332C31.8127 16.9062 31.4117 17.3506 30.8876 17.665C30.3681 17.9795 29.7665 18.1367 29.0829 18.1367C28.0393 18.1367 27.203 17.7904 26.5741 17.0977C25.9498 16.4004 25.6376 15.473 25.6376 14.3154V14.2334ZM27.2987 14.377C27.2987 15.138 27.456 15.735 27.7704 16.168C28.0849 16.5964 28.5224 16.8105 29.0829 16.8105C29.6435 16.8105 30.0787 16.5918 30.3886 16.1543C30.703 15.7168 30.8603 15.0765 30.8603 14.2334C30.8603 13.486 30.6985 12.8936 30.3749 12.4561C30.0559 12.0186 29.6207 11.7998 29.0693 11.7998C28.5269 11.7998 28.0963 12.0163 27.7773 12.4492C27.4583 12.8776 27.2987 13.5202 27.2987 14.377ZM33.3983 14.2471C33.3983 13.1077 33.6626 12.194 34.1913 11.5059C34.7199 10.8132 35.4286 10.4668 36.3173 10.4668C37.1011 10.4668 37.7346 10.7402 38.2177 11.2871V7.5H39.8788V18H38.3749L38.2929 17.2344C37.7961 17.8359 37.133 18.1367 36.3036 18.1367C35.4377 18.1367 34.7359 17.7881 34.1981 17.0908C33.6649 16.3936 33.3983 15.4456 33.3983 14.2471ZM35.0595 14.3906C35.0595 15.1426 35.203 15.7305 35.4901 16.1543C35.7818 16.5736 36.1942 16.7832 36.7274 16.7832C37.4065 16.7832 37.9032 16.4801 38.2177 15.874V12.7158C37.9123 12.1234 37.4201 11.8271 36.7411 11.8271C36.2033 11.8271 35.7886 12.0413 35.497 12.4697C35.2053 12.8936 35.0595 13.5339 35.0595 14.3906Z" fill="white"/>
<path d="M13.5469 6.99609H9.55664V18H7.35059V6.99609H3.39551V5.20312H13.5469V6.99609Z" fill="white"/>
</svg>
